<mxfile host="app.diagrams.net" agent="Mozilla/5.0 (Windows NT 10.0; Win64; x64) AppleWebKit/537.36 (KHTML, like Gecko) Chrome/131.0.0.0 Safari/537.36" version="26.0.4">
  <diagram name="第 1 页" id="lNHUrWMQAlrkwlzFhIT1">
    <mxGraphModel dx="2074" dy="1106" grid="1" gridSize="10" guides="1" tooltips="1" connect="1" arrows="1" fold="1" page="1" pageScale="1" pageWidth="827" pageHeight="1169" math="0" shadow="0">
      <root>
        <mxCell id="0" />
        <mxCell id="1" parent="0" />
        <mxCell id="Pw_NBHD11S9oDheNidvs-5" style="edgeStyle=orthogonalEdgeStyle;rounded=0;orthogonalLoop=1;jettySize=auto;html=1;entryX=0;entryY=0.5;entryDx=0;entryDy=0;" edge="1" parent="1" source="Pw_NBHD11S9oDheNidvs-1" target="Pw_NBHD11S9oDheNidvs-2">
          <mxGeometry relative="1" as="geometry" />
        </mxCell>
        <mxCell id="Pw_NBHD11S9oDheNidvs-1" value="&lt;font style=&quot;font-size: 20px;&quot;&gt;HOST OS Panic&lt;/font&gt;" style="rounded=0;whiteSpace=wrap;html=1;" vertex="1" parent="1">
          <mxGeometry x="70" y="220" width="200" height="60" as="geometry" />
        </mxCell>
        <mxCell id="Pw_NBHD11S9oDheNidvs-4" style="edgeStyle=orthogonalEdgeStyle;rounded=0;orthogonalLoop=1;jettySize=auto;html=1;entryX=0;entryY=0.5;entryDx=0;entryDy=0;" edge="1" parent="1" source="Pw_NBHD11S9oDheNidvs-2" target="Pw_NBHD11S9oDheNidvs-3">
          <mxGeometry relative="1" as="geometry" />
        </mxCell>
        <mxCell id="Pw_NBHD11S9oDheNidvs-2" value="&lt;font style=&quot;font-size: 20px;&quot;&gt;加载Kdump内核&lt;/font&gt;" style="rounded=0;whiteSpace=wrap;html=1;" vertex="1" parent="1">
          <mxGeometry x="370" y="220" width="200" height="60" as="geometry" />
        </mxCell>
        <mxCell id="Pw_NBHD11S9oDheNidvs-3" value="&lt;font style=&quot;font-size: 20px;&quot;&gt;再次panic&lt;/font&gt;" style="rounded=0;whiteSpace=wrap;html=1;" vertex="1" parent="1">
          <mxGeometry x="760" y="220" width="200" height="60" as="geometry" />
        </mxCell>
        <mxCell id="Pw_NBHD11S9oDheNidvs-6" value="&lt;font style=&quot;font-size: 14px;&quot;&gt;kdump内核初始化&lt;/font&gt;" style="text;html=1;align=center;verticalAlign=middle;whiteSpace=wrap;rounded=0;" vertex="1" parent="1">
          <mxGeometry x="610" y="220" width="120" height="30" as="geometry" />
        </mxCell>
        <mxCell id="Pw_NBHD11S9oDheNidvs-7" value="" style="endArrow=none;html=1;rounded=0;" edge="1" parent="1">
          <mxGeometry width="50" height="50" relative="1" as="geometry">
            <mxPoint y="330" as="sourcePoint" />
            <mxPoint x="1070" y="330" as="targetPoint" />
          </mxGeometry>
        </mxCell>
      </root>
    </mxGraphModel>
  </diagram>
</mxfile>
